# xmcd CD database file
#
# Track frame offsets:
#	150
#	16670
#	30794
#	44613
#	58459
#	72820
#	87391
#	103759
#	118845
#	135407
#	152360
#	168561
#	186518
#	202858
#	220883
#	240305
#	256771
#	272136
#	290161
#	309246
#	324485
#	341076
#
# Disc length: 4764 seconds
#
# Revision: 0
# Processed by: cddbd v1.4PL0 Copyright (c) Steve Scherf et al.
# Submitted via: CDex 1.40Release
#
DISCID=3b129a16
DTITLE=Alabama - For The Record - Disc 1
DYEAR=1900
DGENRE=Country
TTITLE0=Five O'Clock 500
TTITLE1=Keepin' Up 
TTITLE2=How Do You Fall in Love
TTITLE3=Tennessee River 
TTITLE4=Why Lady Why
TTITLE5=Old Flame
TTITLE6=Feels So Right 
TTITLE7=Love in the First Degree 
TTITLE8=Mountain Music
TTITLE9=Take Me Down
TTITLE10=Close Enough to Perfect 
TTITLE11=Dixieland Delight 
TTITLE12=The Closer You Get 
TTITLE13=Lady Down on Love
TTITLE14=Roll on (Eighteen Wheeler) 
TTITLE15=When We Make Love
TTITLE16=If You're Gonna Play in Texas
TTITLE17=(There's A) Fire in the Night 
TTITLE18=There's No Way 
TTITLE19=Forty Hour Week (For a Livin') 
TTITLE20=Can't Keep a Good Man Down
TTITLE21=She And I
EXTD=ID3G: 2
EXTT0=
EXTT1=
EXTT2=
EXTT3=
EXTT4=
EXTT5=
EXTT6=
EXTT7=
EXTT8=
EXTT9=
EXTT10=
EXTT11=
EXTT12=
EXTT13=
EXTT14=
EXTT15=
EXTT16=
EXTT17=
EXTT18=
EXTT19=
EXTT20=
EXTT21=
PLAYORDER=
